<svg xmlns="http://www.w3.org/2000/svg" viewBox="0 0 1600 1000" preserveAspectRatio="xMidYMid slice" role="img" aria-label="Senior Paws vintage cream poster background">
  <defs>
    <radialGradient id="creamBase" cx="50%" cy="38%" r="85%">
      <stop offset="0%" stop-color="#F8EFD6"/>
      <stop offset="55%" stop-color="#F0E2B9"/>
      <stop offset="100%" stop-color="#DBC591"/>
    </radialGradient>

    <symbol id="paw" viewBox="0 0 60 60">
      <ellipse cx="30" cy="40" rx="14" ry="11"/>
      <ellipse cx="11" cy="22" rx="6" ry="8"/>
      <ellipse cx="22" cy="9" rx="6" ry="8"/>
      <ellipse cx="38" cy="9" rx="6" ry="8"/>
      <ellipse cx="49" cy="22" rx="6" ry="8"/>
    </symbol>

    <symbol id="heart" viewBox="0 0 32 30">
      <path d="M16 27 C 4 18 0 11 5 5 c 4 -5 11 -2 11 4 c 0 -6 7 -9 11 -4 c 5 6 1 13 -11 22 z"/>
    </symbol>

    <filter id="grain" x="0" y="0" width="100%" height="100%">
      <feTurbulence type="fractalNoise" baseFrequency="0.85" numOctaves="2" stitchTiles="stitch" seed="7"/>
      <feColorMatrix values="0 0 0 0 0.42  0 0 0 0 0.30  0 0 0 0 0.14  0 0 0 0.55 0"/>
    </filter>

    <filter id="softInk" x="-20%" y="-20%" width="140%" height="140%">
      <feGaussianBlur stdDeviation="0.4"/>
    </filter>
  </defs>

  <rect width="100%" height="100%" fill="url(#creamBase)"/>

  <rect width="100%" height="100%" fill="#A8854A" opacity="0.08" filter="url(#grain)"/>

  <g color="#9C7037" opacity="0.16">
    <use href="#paw" x="60"   y="50"  width="58" height="58" transform="rotate(18 89 79)"/>
    <use href="#paw" x="290"  y="120" width="42" height="42" transform="rotate(-12 311 141)"/>
    <use href="#paw" x="540"  y="40"  width="60" height="60" transform="rotate(24 570 70)"/>
    <use href="#paw" x="820"  y="100" width="46" height="46" transform="rotate(-22 843 123)"/>
    <use href="#paw" x="1060" y="40"  width="50" height="50" transform="rotate(8 1085 65)"/>
    <use href="#paw" x="1310" y="130" width="55" height="55" transform="rotate(-18 1337 158)"/>
    <use href="#paw" x="1480" y="60"  width="48" height="48" transform="rotate(15 1504 84)"/>

    <use href="#paw" x="40"   y="280" width="50" height="50" transform="rotate(-15 65 305)"/>
    <use href="#paw" x="220"  y="430" width="44" height="44" transform="rotate(20 242 452)"/>
    <use href="#paw" x="430"  y="320" width="52" height="52" transform="rotate(-25 456 346)"/>
    <use href="#paw" x="700"  y="450" width="48" height="48" transform="rotate(12 724 474)"/>
    <use href="#paw" x="940"  y="320" width="56" height="56" transform="rotate(-10 968 348)"/>
    <use href="#paw" x="1180" y="420" width="46" height="46" transform="rotate(22 1203 443)"/>
    <use href="#paw" x="1420" y="320" width="52" height="52" transform="rotate(-18 1446 346)"/>

    <use href="#paw" x="80"   y="600" width="46" height="46" transform="rotate(15 103 623)"/>
    <use href="#paw" x="320"  y="700" width="54" height="54" transform="rotate(-22 347 727)"/>
    <use href="#paw" x="580"  y="640" width="48" height="48" transform="rotate(10 604 664)"/>
    <use href="#paw" x="830"  y="730" width="50" height="50" transform="rotate(-14 855 755)"/>
    <use href="#paw" x="1080" y="640" width="58" height="58" transform="rotate(20 1109 669)"/>
    <use href="#paw" x="1340" y="720" width="44" height="44" transform="rotate(-16 1362 742)"/>

    <use href="#paw" x="140"  y="870" width="50" height="50" transform="rotate(25 165 895)"/>
    <use href="#paw" x="420"  y="900" width="46" height="46" transform="rotate(-12 443 923)"/>
    <use href="#paw" x="700"  y="860" width="54" height="54" transform="rotate(18 727 887)"/>
    <use href="#paw" x="1000" y="900" width="48" height="48" transform="rotate(-20 1024 924)"/>
    <use href="#paw" x="1280" y="870" width="50" height="50" transform="rotate(14 1305 895)"/>
    <use href="#paw" x="1500" y="910" width="44" height="44" transform="rotate(-22 1522 932)"/>
  </g>

  <g fill="#B98A2D" opacity="0.55">
    <circle cx="180"  cy="190" r="2.8"/>
    <circle cx="195"  cy="178" r="1.6"/>
    <circle cx="170"  cy="205" r="1.6"/>
    <circle cx="430"  cy="280" r="2.4"/>
    <circle cx="445"  cy="293" r="1.4"/>
    <circle cx="690"  cy="220" r="2.6"/>
    <circle cx="710"  cy="232" r="1.5"/>
    <circle cx="675"  cy="232" r="1.4"/>
    <circle cx="1010" cy="180" r="2.4"/>
    <circle cx="1265" cy="260" r="2.6"/>
    <circle cx="1280" cy="248" r="1.5"/>
    <circle cx="1490" cy="220" r="2.2"/>
    <circle cx="240"  cy="540" r="2.6"/>
    <circle cx="525"  cy="560" r="2.4"/>
    <circle cx="540"  cy="572" r="1.5"/>
    <circle cx="800"  cy="540" r="2.4"/>
    <circle cx="1130" cy="540" r="2.6"/>
    <circle cx="1145" cy="528" r="1.4"/>
    <circle cx="1395" cy="560" r="2.4"/>
    <circle cx="280"  cy="800" r="2.6"/>
    <circle cx="555"  cy="800" r="2.2"/>
    <circle cx="900"  cy="800" r="2.4"/>
    <circle cx="1190" cy="780" r="2.6"/>
    <circle cx="1430" cy="800" r="2.2"/>
  </g>

  <g fill="none" stroke="#B98A2D" stroke-width="2.2" stroke-linecap="round" opacity="0.55">
    <path d="M 240 240 q 12 -14 26 -2 q 8 7 -2 16"/>
    <path d="M 745 280 q -14 -10 -26 4 q -6 8 4 16"/>
    <path d="M 1100 230 q 14 -12 28 0 q 7 8 -4 17"/>
    <path d="M 380 600 q -12 12 -28 0 q -7 -7 4 -16"/>
    <path d="M 980 620 q 14 -14 28 -2 q 8 8 -3 17"/>
    <path d="M 1310 600 q -14 -10 -26 4 q -6 8 4 16"/>
  </g>

  <g fill="none" stroke="#9C7037" stroke-width="1.6" stroke-linecap="round" opacity="0.45">
    <path d="M 360 200 l 24 0"/>
    <path d="M 372 188 l 0 24"/>
    <path d="M 364 192 l 16 16"/>
    <path d="M 364 208 l 16 -16"/>

    <path d="M 1180 460 l 22 0"/>
    <path d="M 1191 449 l 0 22"/>

    <path d="M 620 760 l 22 0"/>
    <path d="M 631 749 l 0 22"/>
    <path d="M 624 753 l 14 14"/>
    <path d="M 624 767 l 14 -14"/>
  </g>

  <g color="#1F3A1F" opacity="0.35">
    <use href="#heart" x="115" y="135" width="22" height="20"/>
    <use href="#heart" x="1448" y="170" width="20" height="18"/>
    <use href="#heart" x="80" y="730" width="18" height="16"/>
    <use href="#heart" x="1490" y="780" width="22" height="20"/>
    <use href="#heart" x="500" y="180" width="16" height="14"/>
    <use href="#heart" x="1140" y="160" width="18" height="16"/>
  </g>

  <g fill="none" stroke="#1F3A1F" stroke-linecap="round" stroke-linejoin="round" filter="url(#softInk)">
    <rect x="22" y="22" width="1556" height="956" stroke-width="4" opacity="0.55" rx="6"/>
    <rect x="38" y="38" width="1524" height="924" stroke-width="1.4" stroke-dasharray="2 7" opacity="0.45" rx="3"/>
  </g>

  <g fill="none" stroke="#1F3A1F" stroke-width="2.4" stroke-linecap="round" opacity="0.62">
    <path d="M 60 90 q 22 -14 44 4 q 14 14 -2 28 q -10 8 -22 -2"/>
    <path d="M 92 64 q 8 -2 16 4"/>

    <path d="M 1540 90 q -22 -14 -44 4 q -14 14 2 28 q 10 8 22 -2"/>
    <path d="M 1508 64 q -8 -2 -16 4"/>

    <path d="M 60 910 q 22 14 44 -4 q 14 -14 -2 -28 q -10 -8 -22 2"/>
    <path d="M 92 936 q 8 2 16 -4"/>

    <path d="M 1540 910 q -22 14 -44 -4 q -14 -14 2 -28 q 10 -8 22 2"/>
    <path d="M 1508 936 q -8 2 -16 -4"/>
  </g>

  <g fill="#1F3A1F" opacity="0.6">
    <circle cx="74" cy="500" r="3.5"/>
    <circle cx="74" cy="486" r="2"/>
    <circle cx="74" cy="514" r="2"/>
    <circle cx="1526" cy="500" r="3.5"/>
    <circle cx="1526" cy="486" r="2"/>
    <circle cx="1526" cy="514" r="2"/>
    <circle cx="800" cy="60" r="3"/>
    <circle cx="786" cy="60" r="1.6"/>
    <circle cx="814" cy="60" r="1.6"/>
    <circle cx="800" cy="940" r="3"/>
    <circle cx="786" cy="940" r="1.6"/>
    <circle cx="814" cy="940" r="1.6"/>
  </g>

  <g fill="none" stroke="#9C7037" stroke-width="1.2" opacity="0.18" stroke-dasharray="3 6">
    <path d="M 0 360 q 400 -90 800 0 t 800 0"/>
    <path d="M 0 640 q 400 90 800 0 t 800 0"/>
  </g>

  <rect width="100%" height="100%" fill="#5A3F1A" opacity="0.05" filter="url(#grain)"/>
</svg>
